<?xml version="1.0" standalone="no"?>
<!DOCTYPE svg PUBLIC "-//W3C//DTD SVG 20010904//EN"
 "http://www.w3.org/TR/2001/REC-SVG-20010904/DTD/svg10.dtd">
<svg version="1.0" xmlns="http://www.w3.org/2000/svg"
 width="512.000000pt" height="512.000000pt" viewBox="0 0 512.000000 512.000000"
 preserveAspectRatio="xMidYMid meet">

<g transform="translate(0.000000,512.000000) scale(0.100000,-0.100000)"
fill="#9CA3AF" stroke="none">
<path d="M1298 4245 c-640 -122 -1169 -901 -1279 -1885 -19 -170 -17 -513 4
-630 69 -396 254 -672 531 -795 121 -54 208 -70 376 -70 175 1 243 14 368 71
200 91 398 293 632 644 92 137 259 419 455 767 94 167 173 303 176 303 4 0 96
-150 205 -332 250 -420 355 -589 464 -753 282 -421 495 -608 775 -681 101 -26
342 -26 445 0 304 76 518 313 611 676 43 167 53 257 53 490 0 303 -23 505 -90
770 -106 427 -289 784 -536 1045 -259 274 -561 411 -867 392 -165 -10 -351
-83 -506 -199 -99 -74 -298 -274 -395 -398 -45 -58 -85 -106 -89 -108 -4 -1
-46 44 -94 101 -114 138 -298 312 -414 393 -120 84 -256 148 -380 180 -125 32
-329 41 -445 19z m2530 -458 c98 -34 168 -78 260 -162 270 -248 454 -686 524
-1245 20 -163 17 -527 -5 -621 -23 -99 -75 -206 -123 -254 -75 -75 -196 -108
-309 -85 -82 17 -123 40 -200 112 -137 128 -311 386 -728 1078 -104 173 -228
374 -275 445 -47 72 -85 135 -85 141 -1 29 180 270 283 378 124 130 214 191
335 228 86 26 225 20 323 -15z m-2199 -107 c182 -49 361 -204 587 -507 l84
-113 -198 -307 c-109 -170 -252 -391 -317 -493 -315 -493 -471 -691 -617 -783
-69 -44 -135 -61 -228 -61 -127 0 -222 57 -290 174 -78 133 -106 318 -89 585
34 540 217 1034 487 1317 180 189 364 248 581 188z"/>
</g>
</svg>
